<svg xmlns="http://www.w3.org/2000/svg" width="24" height="24" viewBox="0 0 24 24">
  <g id="vuesax_bold_message-notif" data-name="vuesax/bold/message-notif" transform="translate(-108 -252)">
    <g id="message-notif">
      <path id="Vector" d="M5.5,2.75A2.75,2.75,0,1,1,2.75,0,2.75,2.75,0,0,1,5.5,2.75Z" transform="translate(125.25 253.25)" fill="#6d4778"/>
      <path id="Vector-2" data-name="Vector" d="M17.04,6.15a4.226,4.226,0,0,1-3.19-3.19,4.362,4.362,0,0,1-.03-1.76A.988.988,0,0,0,12.85,0H5A5,5,0,0,0,0,5v6.95a5,5,0,0,0,5,5H6.5a1.112,1.112,0,0,1,.8.4l1.5,1.99a1.421,1.421,0,0,0,2.4,0l1.5-1.99a1,1,0,0,1,.8-.4h1.51A4.985,4.985,0,0,0,20,11.96V7.15a1,1,0,0,0-1.2-.97A4.549,4.549,0,0,1,17.04,6.15ZM6,10A1,1,0,1,1,7,9,1,1,0,0,1,6,10Zm4,0a1,1,0,1,1,1-1A1,1,0,0,1,10,10Zm4,0a1,1,0,1,1,1-1A1,1,0,0,1,14,10Z" transform="translate(110 254)" fill="#6d4778"/>
      <path id="Vector-3" data-name="Vector" d="M0,0H24V24H0Z" transform="translate(108 252)" fill="none" opacity="0"/>
      <path id="Vector-4" data-name="Vector" d="M0,0H24V24H0Z" transform="translate(132 276) rotate(180)" fill="none" opacity="0"/>
    </g>
  </g>
</svg>
