<svg xmlns="http://www.w3.org/2000/svg" width="24" height="24" viewBox="0 0 24 24">
  <g id="vuesax_bold_percentage-square" data-name="vuesax/bold/percentage-square" transform="translate(-556 -252)">
    <g id="percentage-square">
      <path id="Vector" d="M0,0H24V24H0Z" transform="translate(556 252)" fill="none" opacity="0"/>
      <path id="Vector-2" data-name="Vector" d="M14.19,0H5.81C2.17,0,0,2.17,0,5.81v8.37C0,17.83,2.17,20,5.81,20h8.37c3.64,0,5.81-2.17,5.81-5.81V5.81C20,2.17,17.83,0,14.19,0ZM5.75,7.14A1.48,1.48,0,1,1,7.23,8.62,1.483,1.483,0,0,1,5.75,7.14Zm1.07,6.88a.742.742,0,0,1-.53-.22.754.754,0,0,1,0-1.06l6.55-6.55A.75.75,0,0,1,13.9,7.25L7.35,13.8A.742.742,0,0,1,6.82,14.02Zm6.95.32a1.48,1.48,0,1,1,1.48-1.48A1.483,1.483,0,0,1,13.77,14.34Z" transform="translate(558 254)" fill="#6d4778"/>
    </g>
  </g>
</svg>
